<svg xmlns="http://www.w3.org/2000/svg" width="400" height="200" viewBox="0 0 800 400">
  <defs>
    <style>
      .cls-1 {
        fill: #fff;
        fill-rule: evenodd;
      }
    </style>
  </defs>
  <path id="Preenchimento_de_Cor_1" data-name="Preenchimento de Cor 1" class="cls-1" d="M168,264c122.939,0.281,163.348,3.163,192-18,13.563,26.077,36.639,41.537,40,45-2.885,1.522-6.241,8.4-44,25-44.409,19.518-116.083,14-178,14-26.169,0-67.055.872-88,0,12-47.329,24-96.671,36-144,7.918-27.413,11.742-52.873,21-75,18.41-44,55.89-68.8,111-88,26.681-9.293,78.907-11.448,108-1a177.524,177.524,0,0,1,86.253,65.55c18.865,29.158,22.749,49.423,21.258,89.2-3.565,37.729-20.8,53.8-21.511,53.255-20.414-15.5-37-44-37-44s8.028-27.972,5-48c-4.634-30.65-19.047-52.654-42-68-14.065-9.4-38.474-14.779-68-15-7.65-.159-19.49,1.935-30,4-17.26,5.095-24.806,8.631-38,17-33.132,21.016-41.332,54.534-55,96-2.33,11-3.67,19-6,30C177.056,220.345,172.234,242.726,168,264ZM494,18c35,1.214,90.634,7.541,128,40-2-1.736-28,30-28,30l-2-2a184.673,184.673,0,0,0-45-23c-19.289-6.569-35.888-9.02-60-7-19.617,2.188-27.229,6.751-38,13-7.94-10.016-22.52-23.765-34-30a157.428,157.428,0,0,1,35-15C480.482,15.862,476.4,18.536,494,18ZM628,266c0.049-11.825-10.808-72.444-16-78v-2c-17.818.244-77.479-.841-84-2-2.621-7.4-3.84-34.163-8-46H624c9.684,0,25.8-.008,33,0,1.394,3.234,10.677,33.015,15,48,7.245,25.114,13.387,50.2,20,76,5.179,20.2,10.327,45.142,16,68-156.3,1.3-270.43,10.2-336-82-16.712-23.5-41.278-43.28-30-118,4.6-30.471,27.648-53.571,29-55,1.677,1.149,28.638,20.4,33,41-14.013,49.4.164,70.97,10,86C457.372,268.28,519.808,266.593,628,266ZM288,362v8H266v4h18v6a4.812,4.812,0,0,1,0,2c-5.619-.008-19.621-0.409-20,0-0.3.319,0.286,5.337,0,6-0.119.275-7.18-.076-12,0,0.26-6.1,2.4-20.3,6-24v-2h30Zm30,26H308c0.4-8.406,1.808-25.943,2-26-0.305.091,8.3-.137,12,0Q320,375,318,388Zm28-26h10v18h20v8H344Q345,375,346,362Zm54,0h14c1.526,6.389,5.126,7.186,8,12,1.923-1.392.6-.1,2-2l8-10h14v26H436q-0.5-6-1-12l-1,2c-3.527,2.142-6.127,6.344-8,10h-6l-8-12h-2v12H400V362Zm70,0h32c0.054,2.306.1,4.23,0,6H482v4h20v6H482v4h22v6H472Q471,375,470,362Zm60,0c27.249-1.036,29.79,1.766,30,6v2c-4,.029-10.21.108-11,0a2.507,2.507,0,0,1-1-2c0.016-.247-6.579-0.165-12,0v4c6.573-.211,19.205.666,23,3,2.14,1.507,2.685,2.654,3,9a2.854,2.854,0,0,1-1,2c-13.094,3.132-26.543,2.631-35-4v-2c3.255,0,11.92-.4,12,0.013A3.162,3.162,0,0,1,538,382c-0.074.242,11.926,0.471,12,0,0.136-.863.66-3.976,0-4-22.694-.825-26-6-26-6v-6c0.448-1.374,1.046-2.6,2-3C528.42,361.982,528.463,362.023,530,362Zm4,14h0Zm0,0h0Z"/>
</svg>
